HIERARCHY
ROOT SpineBase
{
  OFFSET 0.000000 0.000000 0.000000
  CHANNELS 6 Xposition Yposition Zposition Zrotation Xrotation Yrotation
  JOINT SpineMid
  {
    OFFSET 0.000000 29.005497 0.000000
    CHANNELS 3 Zrotation Xrotation Yrotation
    JOINT SpineShoulder
    {
      OFFSET -0.140054 21.588438 -0.797751
      CHANNELS 3 Zrotation Xrotation Yrotation
      JOINT Neck
      {
        OFFSET -0.065734 7.164047 -0.596725
        CHANNELS 3 Zrotation Xrotation Yrotation
        JOINT Head
        {
          OFFSET 3.901027 11.990473 -0.320103
          CHANNELS 3 Zrotation Xrotation Yrotation
          End Site
          {
            OFFSET 0 0 0
          }
        }
      }
      JOINT ShoulderLeft
      {
        OFFSET -12.883431 -2.067302 -10.078601
        CHANNELS 3 Zrotation Xrotation Yrotation
        JOINT ElbowLeft
        {
          OFFSET -4.298301 -23.366417 -3.733536
          CHANNELS 3 Zrotation Xrotation Yrotation
          JOINT WristLeft
          {
            OFFSET 3.177038 -19.204385 -3.552457
            CHANNELS 3 Zrotation Xrotation Yrotation
            JOINT HandLeft
            {
              OFFSET 1.364391 -7.105151 -0.680039
              CHANNELS 3 Zrotation Xrotation Yrotation
              JOINT HandTipLeft
              {
                OFFSET 1.507269 -6.469102 -0.173440
                CHANNELS 3 Zrotation Xrotation Yrotation
                End Site
                {
                  OFFSET 0 0 0
                }
              }
              JOINT ThumbLeft
              {
                OFFSET 3.041096 1.855924 0.398169
                CHANNELS 3 Zrotation Xrotation Yrotation
                End Site
                {
                  OFFSET 0 0 0
                }
              }
            }
          }
        }
      }
      JOINT ShoulderRight
      {
        OFFSET 14.769657 -5.379429 7.824432
        CHANNELS 3 Zrotation Xrotation Yrotation
        JOINT ElbowRight
        {
          OFFSET 0.464446 -24.583261 2.139618
          CHANNELS 3 Zrotation Xrotation Yrotation
          JOINT WristRight
          {
            OFFSET 1.260317 -20.874168 -2.995824
            CHANNELS 3 Zrotation Xrotation Yrotation
            JOINT HandRight
            {
              OFFSET -1.556446 -4.346168 -2.241423
              CHANNELS 3 Zrotation Xrotation Yrotation
              JOINT HandTipRight
              {
                OFFSET 0.450867 -5.311628 -0.788833
                CHANNELS 3 Zrotation Xrotation Yrotation
                End Site
                {
                  OFFSET 0 0 0
                }
              }
              JOINT ThumbRight
              {
                OFFSET 2.476196 -0.329762 -1.185801
                CHANNELS 3 Zrotation Xrotation Yrotation
                End Site
                {
                  OFFSET 0 0 0
                }
              }
            }
          }
        }
      }
    }
  }
  JOINT HipLeft
  {
    OFFSET -5.890544 1.526038 -6.334581
    CHANNELS 3 Zrotation Xrotation Yrotation
    JOINT KneeLeft
    {
      OFFSET -10.671636 -27.636394 0.664623
      CHANNELS 3 Zrotation Xrotation Yrotation
      JOINT AnkleLeft
      {
        OFFSET -5.193419 -31.176383 5.640346
        CHANNELS 3 Zrotation Xrotation Yrotation
        JOINT FootLeft
        {
          OFFSET 4.756861 -3.486690 -10.677781
          CHANNELS 3 Zrotation Xrotation Yrotation
          End Site
          {
            OFFSET 0 0 0
          }
        }
      }
    }
  }
  JOINT HipRight
  {
    OFFSET 5.443507 0.040449 0.137359
    CHANNELS 3 Zrotation Xrotation Yrotation
    JOINT KneeRight
    {
      OFFSET -2.476902 -29.430777 6.704324
      CHANNELS 3 Zrotation Xrotation Yrotation
      JOINT AnkleRight
      {
        OFFSET -3.446649 -31.272011 6.230241
        CHANNELS 3 Zrotation Xrotation Yrotation
        JOINT FootRight
        {
          OFFSET 3.130225 -6.873926 -2.992869
          CHANNELS 3 Zrotation Xrotation Yrotation
          End Site
          {
            OFFSET 0 0 0
          }
        }
      }
    }
  }
}
MOTION
Frames: 16
Frame Time: 0.033333
22.274193 72.509382 346.345333 -0.000000 0.000000 -29.727117 -0.000000 0.000000 29.727117 -0.000000 0.000000 0.000000 -0.000000 0.000000 0.000000 0.000000 0.000000 0.000000 -0.000000 0.000000 0.000000 -0.000000 0.000000 0.000000 -0.000000 0.000000 0.000000 -0.000000 0.000000 0.000000 0.000000 0.000000 0.000000 0.000000 0.000000 0.000000 -0.000000 0.000000 0.000000 -0.000000 0.000000 0.000000 -0.000000 0.000000 0.000000 -0.000000 0.000000 0.000000 0.000000 0.000000 0.000000 0.000000 0.000000 0.000000 -0.000000 0.000000 29.727117 -0.000000 0.000000 0.000000 -0.000000 0.000000 0.000000 0.000000 0.000000 0.000000 -0.000000 0.000000 29.727117 -0.000000 0.000000 0.000000 -0.000000 0.000000 0.000000 0.000000 0.000000 0.000000
21.861797 72.428308 346.180810 -0.372240 -0.005698 -29.767853 0.320294 0.189757 29.767304 -0.000000 0.000000 0.000000 -0.000000 0.000000 0.000000 0.000000 0.000000 0.000000 -0.000000 0.000000 0.000000 -0.000000 0.000000 0.000000 -1.360860 0.261659 0.183988 2.210754 0.836582 0.052373 0.000000 0.000000 0.000000 0.000000 0.000000 0.000000 0.371302 -1.193759 0.013617 -1.918956 2.945664 0.377335 2.543921 -0.469132 -1.261873 -3.202981 3.390697 1.724954 0.000000 0.000000 0.000000 0.000000 0.000000 0.000000 0.320294 0.189757 29.767304 -0.000000 0.000000 0.000000 -0.000000 0.000000 0.000000 0.000000 0.000000 0.000000 0.320294 0.189757 29.767304 -0.000000 0.000000 0.000000 -0.000000 0.000000 0.000000 0.000000 0.000000 0.000000
21.512554 72.358503 346.035931 -0.682320 -0.019587 -29.823751 0.582219 0.356327 29.821824 -0.000000 0.000000 0.000000 -0.000000 0.000000 0.000000 0.000000 0.000000 0.000000 -0.000000 0.000000 0.000000 -0.000000 0.000000 0.000000 -2.167782 0.513182 0.316775 3.628875 1.567144 0.138294 0.000000 0.000000 0.000000 0.000000 0.000000 0.000000 0.622278 -2.087993 0.026005 -3.464689 5.389700 0.786881 4.604967 -0.651390 -2.332810 -5.703330 5.464605 3.183058 0.000000 0.000000 0.000000 0.000000 0.000000 0.000000 1.351549 0.205139 30.031078 -0.590377 0.515921 -0.210365 -0.000000 0.000000 0.000000 0.000000 0.000000 0.000000 0.582219 0.356327 29.821824 -0.000000 0.000000 0.000000 0.767444 0.317934 -0.190683 0.000000 0.000000 0.000000
21.226465 72.299967 345.910696 -0.930816 -0.041640 -29.894087 0.786238 0.499998 29.890318 -0.000000 0.000000 0.000000 -1.093166 -0.387797 0.092987 0.000000 0.000000 0.000000 -0.710280 0.491638 0.026053 0.710083 -0.491923 -0.019957 -2.434934 0.758288 0.396179 4.266868 2.193133 0.256397 0.000000 0.000000 0.000000 0.000000 0.000000 0.000000 0.751837 -2.680340 0.032309 -4.643881 7.345356 1.177910 6.171652 -0.564919 -3.233769 -7.414099 6.378368 4.308853 0.000000 0.000000 0.000000 0.000000 0.000000 0.000000 1.840257 0.279861 30.179748 0.031460 0.254972 -0.070823 -0.832459 0.464205 -0.224458 0.000000 0.000000 0.000000 1.800791 0.351288 30.119519 0.052560 0.417796 -0.045599 0.037173 0.645343 -0.391337 0.000000 0.000000 0.000000
21.003528 72.252700 345.805103 -1.118206 -0.071842 -29.978294 0.018634 0.293583 29.945649 0.955473 -0.172583 0.035624 -1.462057 -0.484929 0.112070 0.000000 0.000000 0.000000 -0.986847 0.601928 0.052015 0.986355 -0.602735 -0.041643 -2.173945 0.999197 0.420111 4.137037 2.714284 0.404906 0.000000 0.000000 0.000000 0.000000 0.000000 0.000000 0.759325 -2.969627 0.029584 -5.456961 8.827387 1.511909 7.236601 -0.235048 -3.979826 -8.293660 6.286794 5.085924 0.000000 0.000000 0.000000 0.000000 0.000000 0.000000 2.200148 0.336558 30.325628 0.055615 0.323409 -0.091595 -1.006798 0.560438 -0.270430 0.000000 0.000000 0.000000 2.138561 0.436179 30.242283 0.127545 0.491615 -0.041779 -0.231679 0.780000 -0.384035 0.000000 0.000000 0.000000
20.843744 72.216702 345.719154 -1.244860 -0.110196 -30.075959 -0.057449 0.312676 30.037241 0.291157 0.001707 -0.027475 -0.985468 -0.757611 0.189517 0.000000 0.000000 0.000000 -0.438209 0.495268 0.152311 1.283416 -0.688219 -0.070980 -1.393356 1.236443 0.386344 3.250502 3.128956 0.581660 0.000000 0.000000 0.000000 0.000000 0.000000 0.000000 1.495192 -3.144152 0.089268 -5.900270 9.849469 1.761588 7.797071 0.308338 -4.580936 -8.332470 5.312022 5.536528 0.000000 0.000000 0.000000 0.000000 0.000000 0.000000 2.429033 0.375358 30.468470 0.090292 0.380528 -0.109450 -1.129650 0.627149 -0.302472 0.000000 0.000000 0.000000 2.345904 0.504584 30.361874 0.230071 0.533156 -0.028309 -0.640148 0.874992 -0.306320 0.000000 0.000000 0.000000
20.705711 72.185966 345.592608 -1.311231 -0.083873 -30.208831 -0.200017 0.302740 30.165144 0.293606 0.034659 -0.035187 -1.005900 -1.079570 0.254957 0.000000 0.000000 0.000000 -0.517461 0.419145 0.201179 0.598515 -1.141624 -0.009662 0.528510 2.597611 0.359979 0.603344 4.089096 1.002658 0.000000 0.000000 0.000000 0.000000 0.000000 0.000000 1.494784 -2.951329 0.088889 -5.943567 9.287015 1.770442 9.628687 1.892537 -5.838620 -7.694681 -0.171825 5.838137 0.000000 0.000000 0.000000 0.000000 0.000000 0.000000 2.658507 0.215387 30.692905 0.114497 0.632333 -0.194557 -1.200471 0.608222 -0.311896 0.000000 0.000000 0.000000 2.544706 0.360064 30.518799 0.337510 0.718793 -0.027398 -3.264842 -3.372161 -1.274509 0.000000 0.000000 0.000000
20.635564 72.167170 345.529934 -1.330075 -0.102827 -30.329755 -0.379413 0.287867 30.281081 0.262304 0.053760 -0.045500 -0.996104 -1.354824 0.322187 0.000000 0.000000 0.000000 -0.656964 0.413361 0.260981 1.903956 -0.810383 -0.142302 0.928562 2.486749 0.367236 -2.026073 3.344627 0.988194 0.000000 0.000000 0.000000 0.000000 0.000000 0.000000 1.241054 -1.951410 0.074043 -5.005523 8.521138 1.602053 8.419625 1.667117 -5.452610 -6.254784 1.251160 5.620630 0.000000 0.000000 0.000000 0.000000 0.000000 0.000000 2.714702 0.179750 30.845425 0.168505 0.682978 -0.211974 -1.262547 0.640838 -0.327847 0.000000 0.000000 0.000000 2.573561 0.230127 30.638824 0.590351 0.907265 0.000801 -1.614353 2.200627 0.528253 0.000000 0.000000 0.000000
20.691261 72.177716 345.532584 -1.247846 -0.193322 -30.443710 -0.539079 0.222998 30.390957 0.190180 0.071533 -0.055599 -1.251974 -1.299369 0.317832 0.000000 0.000000 0.000000 -0.875704 0.493092 0.331257 3.451273 -0.824636 -0.387641 1.715685 2.398746 0.338281 -3.875422 4.033264 1.295460 0.000000 0.000000 0.000000 0.000000 0.000000 0.000000 1.077996 -1.650169 0.058903 -4.256536 9.849986 1.657886 4.352239 3.530580 -4.866676 -3.468609 -1.025732 5.140355 0.000000 0.000000 0.000000 0.000000 0.000000 0.000000 2.429269 0.241705 30.915758 0.245733 0.577578 -0.177791 -1.206385 0.642486 -0.318291 0.000000 0.000000 0.000000 2.212906 0.126755 30.690764 1.056557 0.917508 0.094237 -2.960871 1.848368 0.864872 0.000000 0.000000 0.000000
20.727660 72.206360 345.615618 -1.154082 -0.373943 -30.515427 -0.669404 0.135297 30.457812 0.103194 0.094722 -0.065996 -1.920994 -0.963540 0.256226 0.000000 0.000000 0.000000 -1.215316 0.555059 0.446047 6.558442 -0.593730 -0.912140 3.226176 3.099554 0.433818 -8.249056 1.432940 0.955074 0.000000 0.000000 0.000000 0.000000 0.000000 0.000000 0.974133 -1.168304 0.053932 -3.622642 11.983922 1.789911 0.331473 2.903215 -3.928738 -0.200097 -2.634583 4.239367 0.000000 0.000000 0.000000 0.000000 0.000000 0.000000 2.069330 0.610171 30.859185 0.157348 0.260333 -0.070073 -1.090921 0.642943 -0.298184 0.000000 0.000000 0.000000 1.637687 0.394087 30.672545 1.267192 0.487810 0.191167 -2.184207 5.918324 2.332430 0.000000 0.000000 0.000000
21.003219 72.267201 345.596550 -1.022174 -0.494265 -30.736242 -0.643296 0.057985 30.679927 0.153294 0.169214 -0.055714 -3.708102 -0.306606 0.044878 0.000000 0.000000 0.000000 -1.936933 0.611510 0.538554 9.269826 0.265389 -1.289467 9.564431 -2.478650 -0.414642 -10.909440 4.820511 2.369292 0.000000 0.000000 0.000000 0.000000 0.000000 0.000000 0.311575 -0.468984 0.009225 -3.541604 16.652082 2.395796 -6.989454 1.186460 -2.653592 7.059007 -5.421708 2.640180 0.000000 0.000000 0.000000 0.000000 0.000000 0.000000 1.571907 0.579744 31.038265 0.404615 0.026187 -0.012516 -1.025616 0.776121 -0.307817 0.000000 0.000000 0.000000 1.399000 1.228644 30.908993 0.338729 -0.452254 0.102432 1.155628 16.912920 5.457690 0.000000 0.000000 0.000000
21.258331 72.309247 345.508456 -0.911892 -0.726770 -31.328257 -0.540983 0.144444 31.278742 -0.015130 0.192826 -0.058287 -5.963147 0.709673 -0.217680 0.000000 0.000000 0.000000 -2.328354 0.637467 0.617887 15.406221 -0.242144 -2.468957 9.661938 -3.406885 0.152450 -10.705918 2.700734 2.282366 0.000000 0.000000 0.000000 0.000000 0.000000 0.000000 -0.037096 -0.158936 -0.014259 -4.755076 24.253053 3.686913 -11.178649 -3.971571 -3.545295 10.498196 -2.925771 2.307403 0.000000 0.000000 0.000000 0.000000 0.000000 0.000000 1.041872 0.582244 31.613950 0.701712 -0.156704 0.023747 -0.816936 0.459494 -1.479861 0.000000 0.000000 0.000000 1.591629 2.819591 31.642835 -2.154616 -1.996355 -0.303312 5.286483 23.589896 6.298867 0.000000 0.000000 0.000000
21.520641 72.304284 345.457655 -1.272785 -0.926510 -32.097455 -0.644658 0.046424 32.026047 -0.140961 0.171735 -0.091181 -7.448714 2.361310 -0.504156 0.000000 0.000000 0.000000 -2.212363 1.048796 0.742402 22.131583 -1.928784 -3.542285 8.623075 -5.754787 0.934648 -7.569778 4.592212 2.456059 0.000000 0.000000 0.000000 0.000000 0.000000 0.000000 -0.372973 0.630701 -0.017432 -6.670648 32.693006 5.923620 -15.866133 -7.663670 -5.976814 10.962194 2.623763 3.414986 0.000000 0.000000 0.000000 0.000000 0.000000 0.000000 0.586178 1.461072 32.079689 0.782998 -1.170214 0.344354 -0.473907 0.364701 -2.412113 0.000000 0.000000 0.000000 2.779170 5.306611 32.666127 -4.471506 -3.663107 -0.739746 7.860582 23.858487 4.802416 0.000000 0.000000 0.000000
21.816345 72.253023 345.489992 -1.827516 -1.182292 -33.121507 -0.858757 -0.093126 33.015011 -0.236985 0.134200 -0.136004 -8.753936 4.387555 -0.764806 0.000000 0.000000 0.000000 -1.778061 1.762212 0.849341 28.233124 -3.361545 -4.184770 6.672124 -11.683420 2.257812 -3.293497 9.473612 1.884176 0.000000 0.000000 0.000000 0.000000 0.000000 0.000000 -0.452471 1.530776 0.019340 -9.918196 41.284502 9.299221 -25.732932 -4.490258 -9.231388 16.115888 1.302057 5.061857 0.000000 0.000000 0.000000 0.000000 0.000000 0.000000 0.885229 1.988426 33.087287 0.419237 -1.568477 0.342242 0.011667 0.338561 -3.413840 0.000000 0.000000 0.000000 4.276671 8.477566 33.938509 -6.284946 -5.448037 -1.087031 9.611291 25.083928 3.415746 0.000000 0.000000 0.000000
21.916979 72.156016 345.548746 -2.673585 -1.455008 -34.592557 -1.086545 -0.282899 34.433513 -0.302786 0.107933 -0.193192 -9.657026 6.770058 -0.983737 0.000000 0.000000 0.000000 -1.322496 2.839000 0.987955 34.277560 -5.952088 -4.329078 8.330780 -18.127199 4.119148 -2.553122 17.701416 0.908669 0.000000 0.000000 0.000000 0.000000 0.000000 0.000000 -0.170426 2.899150 0.124153 -13.534859 46.387174 12.739073 -25.795056 -5.573869 -12.225241 11.449496 5.425567 7.196084 0.000000 0.000000 0.000000 0.000000 0.000000 0.000000 0.542176 4.135042 33.944045 -0.146975 -3.795171 0.972800 0.578462 0.420518 -4.427190 0.000000 0.000000 0.000000 6.221032 12.182901 35.616335 -6.925185 -7.117876 -1.093101 9.330388 29.993708 3.221960 0.000000 0.000000 0.000000
22.410023 71.809695 345.813287 -4.106039 -1.642298 -36.762470 -1.047685 -0.346713 36.529034 -0.269768 0.100338 -0.255960 -10.276756 8.898131 -1.086729 0.000000 0.000000 0.000000 -1.676570 4.193133 1.303013 40.024084 -8.570927 -3.909236 9.876690 -25.560914 6.663527 -1.141011 25.449399 -1.124469 0.000000 0.000000 0.000000 0.000000 0.000000 0.000000 0.007622 4.932945 0.297629 -16.551806 49.145030 15.803401 -19.913588 -11.482316 -14.416461 -0.389083 10.761768 8.901725 0.000000 0.000000 0.000000 0.000000 0.000000 0.000000 0.256273 6.199750 35.576552 -0.426584 -6.025342 1.519440 1.264306 0.543531 -5.360147 0.000000 0.000000 0.000000 8.241305 16.210804 37.842270 -6.568636 -8.417841 -0.781620 8.187309 29.414266 1.337562 0.000000 0.000000 0.000000
